<svg xmlns="http://www.w3.org/2000/svg" xmlns:xlink="http://www.w3.org/1999/xlink" width="500" zoomAndPan="magnify" viewBox="0 0 375 374.999991" height="500" preserveAspectRatio="xMidYMid meet" version="1.0"><defs><g/><clipPath id="e3efe69891"><path d="M 109 87 L 213 87 L 213 201 L 109 201 Z M 109 87 " clip-rule="nonzero"/></clipPath><clipPath id="e5b097b53a"><path d="M 115.179688 81.113281 L 276.46875 102.875 L 261.328125 215.109375 L 100.039062 193.34375 Z M 115.179688 81.113281 " clip-rule="nonzero"/></clipPath><clipPath id="243447750f"><path d="M 115.179688 81.113281 L 276.46875 102.875 L 261.328125 215.109375 L 100.039062 193.34375 Z M 115.179688 81.113281 " clip-rule="nonzero"/></clipPath><clipPath id="21bbb60d64"><path d="M 138 97 L 272 97 L 272 205 L 138 205 Z M 138 97 " clip-rule="nonzero"/></clipPath><clipPath id="d865ee1dd4"><path d="M 115.179688 81.113281 L 276.46875 102.875 L 261.328125 215.109375 L 100.039062 193.34375 Z M 115.179688 81.113281 " clip-rule="nonzero"/></clipPath><clipPath id="31a2b82df4"><path d="M 115.179688 81.113281 L 276.46875 102.875 L 261.328125 215.109375 L 100.039062 193.34375 Z M 115.179688 81.113281 " clip-rule="nonzero"/></clipPath></defs><g clip-path="url(#e3efe69891)"><g clip-path="url(#e5b097b53a)"><g clip-path="url(#243447750f)"><path fill="#b73a06" d="M 182.472656 188.546875 C 181.625 188.308594 180.765625 188.121094 179.910156 187.902344 L 178.625 187.585938 L 177.332031 187.304688 L 174.738281 186.757812 L 172.125 186.304688 L 170.816406 186.085938 L 169.503906 185.902344 L 166.871094 185.542969 L 164.222656 185.273438 L 162.898438 185.136719 L 161.554688 185.046875 C 157.976562 184.824219 154.386719 184.8125 150.828125 185.03125 C 145.773438 185.328125 140.761719 185.996094 135.839844 186.953125 C 136.566406 183.984375 137.125 180.953125 137.484375 177.898438 C 140.066406 177.320312 142.757812 176.859375 145.445312 176.472656 C 148.714844 176.003906 152.015625 175.640625 155.3125 175.378906 C 158.613281 175.125 161.921875 174.976562 165.210938 175.007812 C 166.855469 175.023438 168.484375 175.085938 170.121094 175.203125 C 171.765625 175.304688 173.40625 175.480469 175.042969 175.675781 C 188.148438 177.316406 200.957031 182.046875 212.28125 189.28125 L 212.523438 188.933594 C 207.128906 184.878906 201.273438 181.386719 195.078125 178.5625 C 188.886719 175.738281 182.347656 173.59375 175.613281 172.214844 C 173.929688 171.882812 172.238281 171.570312 170.535156 171.335938 C 168.828125 171.082031 167.09375 170.925781 165.382812 170.792969 C 161.945312 170.539062 158.515625 170.484375 155.09375 170.535156 C 151.671875 170.585938 148.253906 170.75 144.839844 171.023438 C 142.550781 171.210938 140.28125 171.433594 137.972656 171.753906 C 138.105469 168.503906 138.050781 165.25 137.777344 162.03125 C 137.359375 156.917969 136.644531 151.832031 135.597656 146.828125 C 135.070312 144.324219 134.453125 141.847656 133.710938 139.40625 C 132.972656 136.964844 132.132812 134.5625 131.09375 132.25 C 131.679688 134.714844 132.113281 137.191406 132.433594 139.679688 C 132.746094 142.167969 132.957031 144.667969 133.101562 147.164062 C 133.296875 150.746094 133.339844 154.320312 133.257812 157.890625 C 130.792969 155.523438 128.523438 152.949219 126.511719 150.238281 C 125 148.191406 123.652344 146.050781 122.515625 143.855469 C 121.949219 142.757812 121.445312 141.644531 121.023438 140.527344 C 120.921875 140.25 120.8125 139.96875 120.722656 139.691406 C 120.625 139.417969 120.53125 139.132812 120.441406 138.828125 L 120.171875 137.941406 L 119.933594 137.046875 C 118.667969 132.261719 118.230469 127.261719 118.679688 122.363281 C 118.890625 119.921875 119.332031 117.484375 119.953125 115.152344 C 120.59375 112.824219 121.464844 110.585938 122.5625 108.53125 C 123.664062 106.480469 124.972656 104.601562 126.515625 103.039062 C 127.28125 102.257812 128.101562 101.554688 128.976562 100.9375 C 129.402344 100.640625 129.875 100.324219 130.363281 100.039062 C 130.847656 99.75 131.34375 99.476562 131.851562 99.222656 C 133.875 98.1875 136.058594 97.515625 138.25 96.972656 C 140.445312 96.441406 142.691406 96.015625 144.992188 95.945312 C 146.140625 95.90625 147.28125 95.976562 148.4375 96.144531 C 149.703125 96.355469 150.972656 96.609375 152.234375 96.910156 C 154.753906 97.515625 157.265625 98.261719 159.707031 99.207031 C 162.160156 100.128906 164.558594 101.25 166.828125 102.621094 C 169.109375 103.972656 171.253906 105.59375 173.164062 107.558594 L 173.277344 107.476562 C 172.644531 106.253906 171.890625 105.078125 171.050781 103.964844 C 170.207031 102.84375 169.292969 101.769531 168.300781 100.769531 C 166.316406 98.761719 164.109375 96.957031 161.769531 95.332031 C 159.417969 93.734375 156.945312 92.289062 154.359375 91.046875 C 153.070312 90.421875 151.75 89.835938 150.410156 89.292969 C 148.953125 88.71875 147.425781 88.246094 145.878906 87.921875 C 142.777344 87.25 139.53125 87.117188 136.40625 87.644531 C 133.273438 88.15625 130.28125 89.292969 127.484375 90.75 C 126.78125 91.117188 126.09375 91.511719 125.421875 91.933594 C 124.746094 92.347656 124.09375 92.792969 123.417969 93.285156 C 122.09375 94.265625 120.867188 95.359375 119.757812 96.535156 C 117.53125 98.890625 115.75 101.542969 114.371094 104.316406 C 112.972656 107.085938 111.964844 109.980469 111.253906 112.910156 C 110.570312 115.847656 110.117188 118.785156 109.972656 121.761719 C 109.835938 124.730469 109.933594 127.707031 110.328125 130.640625 C 110.707031 133.578125 111.324219 136.484375 112.242188 139.296875 L 112.585938 140.347656 L 112.964844 141.390625 C 113.210938 142.074219 113.515625 142.8125 113.8125 143.503906 C 114.425781 144.894531 115.113281 146.226562 115.859375 147.507812 C 117.351562 150.070312 119.074219 152.425781 120.921875 154.644531 C 122.769531 156.859375 124.769531 158.914062 126.894531 160.832031 C 128.769531 162.535156 130.757812 164.101562 132.835938 165.554688 C 132.714844 166.839844 132.570312 168.117188 132.386719 169.398438 C 132.046875 171.808594 131.5625 174.199219 131.023438 176.570312 C 130.753906 177.757812 130.449219 178.933594 130.15625 180.117188 L 129.210938 183.644531 L 127.183594 190.730469 L 127.179688 190.730469 L 125.539062 196.589844 L 131.460938 195.335938 C 134.800781 194.632812 138.105469 193.933594 141.429688 193.320312 C 143.089844 193.027344 144.746094 192.738281 146.410156 192.484375 C 147.242188 192.351562 148.070312 192.234375 148.90625 192.125 C 149.734375 192.007812 150.566406 191.910156 151.398438 191.804688 C 152.230469 191.703125 153.0625 191.625 153.898438 191.535156 L 156.398438 191.332031 C 158.0625 191.214844 159.730469 191.117188 161.394531 191.105469 L 162.648438 191.085938 L 166.445312 191.121094 L 168.976562 191.230469 L 170.246094 191.289062 L 171.511719 191.382812 C 174.890625 191.601562 178.261719 192.011719 181.628906 192.515625 C 184.992188 193.046875 188.339844 193.703125 191.667969 194.503906 C 198.328125 196.089844 204.886719 198.25 211.3125 200.875 C 205.386719 197.269531 199.082031 194.195312 192.507812 191.753906 C 189.21875 190.550781 185.878906 189.441406 182.472656 188.546875 Z M 182.472656 188.546875 " fill-opacity="1" fill-rule="nonzero"/></g></g></g><g clip-path="url(#21bbb60d64)"><g clip-path="url(#d865ee1dd4)"><g clip-path="url(#31a2b82df4)"><path fill="#b73a06" d="M 271.5 137.664062 C 271.558594 135.09375 271.425781 132.542969 271.140625 130.011719 C 270.851562 127.476562 270.386719 124.917969 269.664062 122.378906 C 268.9375 119.835938 267.964844 117.328125 266.664062 114.898438 C 265.363281 112.433594 263.667969 110.136719 261.710938 108.109375 C 259.742188 106.09375 257.503906 104.363281 255.125 102.964844 C 250.339844 100.175781 245.101562 98.671875 239.9375 98.015625 C 237.355469 97.675781 234.746094 97.585938 232.230469 97.609375 C 229.703125 97.644531 227.183594 97.832031 224.691406 98.152344 C 219.710938 98.78125 214.847656 99.921875 210.15625 101.464844 C 207.808594 102.226562 205.503906 103.082031 203.246094 104.027344 C 200.984375 104.980469 198.769531 106.007812 196.632812 107.066406 C 194.492188 108.113281 192.40625 109.207031 190.363281 110.28125 C 188.316406 111.351562 186.296875 112.398438 184.289062 113.378906 C 183.289062 113.875 182.289062 114.355469 181.292969 114.820312 L 178.164062 116.242188 C 176.097656 117.171875 174.054688 118.03125 172.035156 118.792969 C 167.996094 120.328125 163.9375 121.386719 160.269531 121.191406 C 156.539062 121.039062 152.765625 119.722656 149.167969 117.472656 C 147.359375 116.363281 145.605469 115.039062 143.890625 113.574219 C 142.167969 112.109375 140.507812 110.496094 138.785156 108.816406 L 138.414062 109.023438 C 138.980469 111.382812 139.890625 113.652344 141.054688 115.824219 C 142.230469 117.992188 143.679688 120.054688 145.433594 121.933594 C 147.195312 123.789062 149.261719 125.476562 151.632812 126.765625 C 152.226562 127.085938 152.828125 127.398438 153.457031 127.675781 C 154.082031 127.945312 154.71875 128.191406 155.371094 128.414062 C 156.675781 128.867188 158.027344 129.179688 159.402344 129.382812 C 160.769531 129.589844 162.1875 129.667969 163.539062 129.625 C 164.902344 129.59375 166.230469 129.476562 167.527344 129.289062 C 170.121094 128.914062 172.589844 128.308594 174.972656 127.605469 C 177.355469 126.902344 179.636719 126.058594 181.863281 125.214844 L 185.15625 123.9375 C 186.289062 123.488281 187.417969 123.03125 188.519531 122.550781 C 190.726562 121.582031 192.871094 120.574219 194.980469 119.574219 L 201.207031 116.628906 C 203.25 115.671875 205.269531 114.792969 207.3125 113.984375 C 209.347656 113.167969 211.398438 112.414062 213.476562 111.757812 C 217.628906 110.449219 221.832031 109.429688 226.070312 108.890625 C 230.285156 108.34375 234.601562 108.1875 238.609375 108.667969 C 242.652344 109.144531 246.515625 110.285156 249.78125 112.15625 C 251.417969 113.085938 252.894531 114.210938 254.191406 115.496094 C 255.472656 116.800781 256.585938 118.25 257.472656 119.882812 C 258.386719 121.539062 259.132812 123.375 259.707031 125.285156 C 260.292969 127.199219 260.714844 129.21875 261 131.285156 C 261.28125 133.363281 261.4375 135.457031 261.441406 137.535156 C 261.4375 139.609375 261.273438 141.664062 260.96875 143.675781 C 260.652344 145.683594 260.164062 147.644531 259.5 149.519531 C 258.816406 151.390625 257.972656 153.171875 256.90625 154.871094 C 254.800781 158.277344 251.964844 161.339844 248.664062 163.855469 C 247 165.117188 245.222656 166.296875 243.375 167.324219 C 241.523438 168.363281 239.582031 169.25 237.585938 170.03125 C 235.589844 170.8125 233.53125 171.464844 231.425781 171.992188 C 230.4375 172.246094 229.441406 172.472656 228.433594 172.671875 C 228.476562 172.34375 228.527344 172.019531 228.566406 171.6875 C 228.664062 170.976562 228.734375 170.261719 228.804688 169.546875 C 228.882812 168.832031 228.953125 168.113281 228.996094 167.394531 L 229.070312 166.3125 L 229.109375 165.773438 L 229.109375 165.070312 C 229.085938 164.152344 228.972656 163.292969 228.808594 162.457031 C 228.46875 160.785156 227.9375 159.214844 227.128906 157.664062 C 226.726562 156.886719 226.25 156.121094 225.632812 155.351562 C 225.464844 155.15625 225.316406 154.964844 225.132812 154.769531 C 224.945312 154.574219 224.75 154.378906 224.550781 154.191406 C 224.34375 154.011719 224.136719 153.835938 223.921875 153.667969 C 223.710938 153.503906 223.492188 153.355469 223.273438 153.199219 C 221.484375 152.027344 219.617188 151.503906 217.929688 151.207031 C 216.234375 150.933594 214.628906 150.890625 213.1875 150.890625 C 210.257812 150.882812 207.367188 151.042969 204.519531 151.332031 C 198.820312 151.902344 193.308594 152.898438 187.859375 153.660156 C 186.496094 153.847656 185.136719 154.027344 183.777344 154.175781 C 182.410156 154.34375 181.09375 154.433594 179.746094 154.554688 C 177.0625 154.71875 174.371094 154.722656 171.679688 154.585938 C 168.996094 154.417969 166.316406 154.078125 163.664062 153.558594 C 161.011719 153.023438 158.402344 152.269531 155.835938 151.355469 C 153.273438 150.417969 150.792969 149.242188 148.355469 147.933594 C 145.941406 146.59375 143.625 145.050781 141.367188 143.390625 C 143.292969 145.417969 145.359375 147.351562 147.609375 149.074219 C 149.871094 150.785156 152.273438 152.332031 154.808594 153.667969 C 157.355469 154.980469 160.019531 156.085938 162.757812 157.003906 C 165.511719 157.871094 168.328125 158.535156 171.183594 159.027344 C 174.046875 159.472656 176.9375 159.722656 179.835938 159.816406 L 182.003906 159.835938 C 182.734375 159.851562 183.449219 159.835938 184.160156 159.816406 C 185.585938 159.78125 187.007812 159.71875 188.425781 159.648438 C 194.085938 159.363281 199.640625 158.855469 205.070312 158.585938 C 207.785156 158.457031 210.46875 158.363281 213.125 158.40625 C 213.796875 158.410156 214.433594 158.421875 215.03125 158.453125 C 215.628906 158.484375 216.199219 158.542969 216.726562 158.628906 C 217.78125 158.789062 218.652344 159.070312 219.210938 159.421875 L 219.414062 159.558594 C 219.472656 159.605469 219.535156 159.652344 219.59375 159.699219 C 219.644531 159.753906 219.699219 159.800781 219.753906 159.847656 L 219.953125 160.054688 C 220.222656 160.363281 220.511719 160.769531 220.789062 161.210938 C 221.34375 162.09375 221.84375 163.136719 222.207031 164.167969 C 222.394531 164.683594 222.546875 165.199219 222.652344 165.667969 C 222.675781 165.78125 222.699219 165.894531 222.726562 166.011719 L 222.789062 166.515625 L 222.917969 167.527344 C 223.007812 168.203125 223.085938 168.882812 223.160156 169.558594 C 223.238281 170.238281 223.316406 170.917969 223.371094 171.601562 C 223.644531 174.332031 223.753906 177.089844 223.734375 179.851562 C 223.695312 182.609375 223.574219 185.378906 223.390625 188.152344 C 223.023438 193.695312 222.359375 199.246094 221.601562 204.78125 L 222.015625 204.863281 C 223.375 199.441406 224.710938 194.003906 225.847656 188.492188 C 226.410156 185.757812 226.910156 183.003906 227.34375 180.226562 C 229.25 180.050781 231.152344 179.796875 233.050781 179.453125 C 235.480469 179 237.902344 178.394531 240.285156 177.628906 C 245.050781 176.089844 249.628906 173.851562 253.824219 170.964844 C 258.035156 168.035156 261.828125 164.375 264.789062 159.988281 C 266.273438 157.808594 267.515625 155.410156 268.507812 152.953125 C 269.480469 150.484375 270.203125 147.941406 270.699219 145.378906 C 271.1875 142.8125 271.429688 140.230469 271.5 137.664062 Z M 271.5 137.664062 " fill-opacity="1" fill-rule="nonzero"/></g></g></g><g fill="#b73a06" fill-opacity="1"><g transform="translate(110.964921, 254.316504)"><g><path d="M 12.515625 0.84375 C 8.554688 0.84375 5.644531 -0.15625 3.78125 -2.15625 C 1.925781 -4.15625 1 -7.46875 1 -12.09375 C 1 -15.769531 1.617188 -19.726562 2.859375 -23.96875 C 4.109375 -28.21875 6.109375 -31.859375 8.859375 -34.890625 C 11.609375 -37.921875 15.101562 -39.4375 19.34375 -39.4375 C 21.976562 -39.4375 24.097656 -38.859375 25.703125 -37.703125 C 27.316406 -36.546875 28.125 -34.773438 28.125 -32.390625 C 28.125 -30.878906 27.828125 -29.691406 27.234375 -28.828125 C 26.640625 -27.972656 25.710938 -27.546875 24.453125 -27.546875 C 23.191406 -27.546875 22.191406 -28.003906 21.453125 -28.921875 C 22.078125 -29.234375 22.632812 -29.863281 23.125 -30.8125 C 23.625 -31.757812 23.875 -32.738281 23.875 -33.75 C 23.875 -34.695312 23.617188 -35.46875 23.109375 -36.0625 C 22.597656 -36.664062 21.78125 -36.96875 20.65625 -36.96875 C 18.800781 -36.96875 17.03125 -35.695312 15.34375 -33.15625 C 13.664062 -30.613281 12.3125 -27.410156 11.28125 -23.546875 C 10.25 -19.691406 9.734375 -15.976562 9.734375 -12.40625 C 9.734375 -9.738281 10.1875 -7.703125 11.09375 -6.296875 C 12.007812 -4.898438 13.65625 -4.203125 16.03125 -4.203125 C 18.101562 -4.203125 20.015625 -4.65625 21.765625 -5.5625 C 23.515625 -6.476562 25.023438 -7.78125 26.296875 -9.46875 L 27.5 -8.9375 C 26.625 -6.726562 25.328125 -4.882812 23.609375 -3.40625 C 21.890625 -1.9375 20.046875 -0.859375 18.078125 -0.171875 C 16.117188 0.503906 14.265625 0.84375 12.515625 0.84375 Z M 12.515625 0.84375 "/></g></g></g><g fill="#b73a06" fill-opacity="1"><g transform="translate(137.092613, 254.316504)"><g><path d="M 7.671875 0.203125 C 5.078125 0.203125 3.023438 -0.457031 1.515625 -1.78125 C 0.015625 -3.113281 -0.734375 -5.21875 -0.734375 -8.09375 C -0.734375 -10.476562 -0.242188 -13.125 0.734375 -16.03125 C 1.710938 -18.945312 3.289062 -21.460938 5.46875 -23.578125 C 7.644531 -25.703125 10.378906 -26.765625 13.671875 -26.765625 C 18.160156 -26.765625 20.40625 -23.957031 20.40625 -18.34375 L 20.40625 -18.296875 C 20.507812 -18.265625 20.703125 -18.25 20.984375 -18.25 C 22.140625 -18.25 23.46875 -18.550781 24.96875 -19.15625 C 26.476562 -19.769531 27.847656 -20.519531 29.078125 -21.40625 L 29.546875 -19.984375 C 28.535156 -18.890625 27.210938 -17.96875 25.578125 -17.21875 C 23.953125 -16.46875 22.175781 -15.929688 20.25 -15.609375 C 19.96875 -12.421875 19.25 -9.632812 18.09375 -7.25 C 16.9375 -4.875 15.445312 -3.035156 13.625 -1.734375 C 11.800781 -0.441406 9.816406 0.203125 7.671875 0.203125 Z M 9.78125 -4.515625 C 10.625 -4.515625 11.460938 -4.992188 12.296875 -5.953125 C 13.140625 -6.921875 13.875 -8.238281 14.5 -9.90625 C 15.132812 -11.570312 15.59375 -13.421875 15.875 -15.453125 C 14.925781 -15.671875 14.453125 -16.410156 14.453125 -17.671875 C 14.453125 -19.109375 15 -20.050781 16.09375 -20.5 C 16.019531 -21.65625 15.84375 -22.453125 15.5625 -22.890625 C 15.28125 -23.335938 14.789062 -23.5625 14.09375 -23.5625 C 12.9375 -23.5625 11.8125 -22.71875 10.71875 -21.03125 C 9.632812 -19.34375 8.757812 -17.328125 8.09375 -14.984375 C 7.425781 -12.640625 7.09375 -10.570312 7.09375 -8.78125 C 7.09375 -7.09375 7.285156 -5.957031 7.671875 -5.375 C 8.054688 -4.800781 8.757812 -4.515625 9.78125 -4.515625 Z M 9.78125 -4.515625 "/></g></g></g><g fill="#b73a06" fill-opacity="1"><g transform="translate(160.171194, 254.316504)"><g><path d="M 7.671875 0.203125 C 5.078125 0.203125 3.023438 -0.457031 1.515625 -1.78125 C 0.015625 -3.113281 -0.734375 -5.21875 -0.734375 -8.09375 C -0.734375 -10.476562 -0.242188 -13.125 0.734375 -16.03125 C 1.710938 -18.945312 3.289062 -21.460938 5.46875 -23.578125 C 7.644531 -25.703125 10.378906 -26.765625 13.671875 -26.765625 C 18.160156 -26.765625 20.40625 -23.957031 20.40625 -18.34375 L 20.40625 -18.296875 C 20.507812 -18.265625 20.703125 -18.25 20.984375 -18.25 C 22.140625 -18.25 23.46875 -18.550781 24.96875 -19.15625 C 26.476562 -19.769531 27.847656 -20.519531 29.078125 -21.40625 L 29.546875 -19.984375 C 28.535156 -18.890625 27.210938 -17.96875 25.578125 -17.21875 C 23.953125 -16.46875 22.175781 -15.929688 20.25 -15.609375 C 19.96875 -12.421875 19.25 -9.632812 18.09375 -7.25 C 16.9375 -4.875 15.445312 -3.035156 13.625 -1.734375 C 11.800781 -0.441406 9.816406 0.203125 7.671875 0.203125 Z M 9.78125 -4.515625 C 10.625 -4.515625 11.460938 -4.992188 12.296875 -5.953125 C 13.140625 -6.921875 13.875 -8.238281 14.5 -9.90625 C 15.132812 -11.570312 15.59375 -13.421875 15.875 -15.453125 C 14.925781 -15.671875 14.453125 -16.410156 14.453125 -17.671875 C 14.453125 -19.109375 15 -20.050781 16.09375 -20.5 C 16.019531 -21.65625 15.84375 -22.453125 15.5625 -22.890625 C 15.28125 -23.335938 14.789062 -23.5625 14.09375 -23.5625 C 12.9375 -23.5625 11.8125 -22.71875 10.71875 -21.03125 C 9.632812 -19.34375 8.757812 -17.328125 8.09375 -14.984375 C 7.425781 -12.640625 7.09375 -10.570312 7.09375 -8.78125 C 7.09375 -7.09375 7.285156 -5.957031 7.671875 -5.375 C 8.054688 -4.800781 8.757812 -4.515625 9.78125 -4.515625 Z M 9.78125 -4.515625 "/></g></g></g><g fill="#b73a06" fill-opacity="1"><g transform="translate(183.249774, 254.316504)"><g><path d="M 19.765625 0.3125 C 17.597656 0.3125 15.953125 -0.203125 14.828125 -1.234375 C 13.703125 -2.265625 13.140625 -3.742188 13.140625 -5.671875 C 13.140625 -6.515625 13.242188 -7.425781 13.453125 -8.40625 L 13.875 -10.46875 C 14.019531 -11.0625 14.09375 -11.707031 14.09375 -12.40625 C 14.09375 -14.09375 13.460938 -14.9375 12.203125 -14.9375 C 11.640625 -14.9375 11.050781 -14.773438 10.4375 -14.453125 C 9.820312 -14.140625 9.113281 -13.648438 8.3125 -12.984375 L 5.578125 0 L -2 0 L 5.625 -35.75 L 13.40625 -36.8125 L 9.46875 -18.296875 L 19.609375 -26.296875 L 24.8125 -26.296875 L 14.296875 -18.984375 C 14.828125 -19.117188 15.40625 -19.1875 16.03125 -19.1875 C 17.925781 -19.1875 19.363281 -18.609375 20.34375 -17.453125 C 21.320312 -16.296875 21.8125 -14.828125 21.8125 -13.046875 C 21.8125 -12.304688 21.742188 -11.640625 21.609375 -11.046875 L 21.03125 -8.40625 C 20.851562 -7.78125 20.765625 -7.222656 20.765625 -6.734375 C 20.765625 -5.429688 21.445312 -4.78125 22.8125 -4.78125 C 23.863281 -4.78125 24.707031 -5.15625 25.34375 -5.90625 C 25.976562 -6.664062 26.609375 -7.832031 27.234375 -9.40625 L 29.4375 -9.40625 C 27.269531 -2.925781 24.046875 0.3125 19.765625 0.3125 Z M 19.765625 0.3125 "/></g></g></g><g fill="#b73a06" fill-opacity="1"><g transform="translate(210.481448, 254.316504)"><g><path d="M 5.203125 0.3125 C 3.523438 0.3125 2.164062 -0.210938 1.125 -1.265625 C 0.09375 -2.316406 -0.421875 -3.894531 -0.421875 -6 C -0.421875 -6.875 -0.28125 -8.007812 0 -9.40625 L 3.578125 -26.296875 L 11.140625 -26.296875 L 7.359375 -8.40625 C 7.253906 -7.882812 7.203125 -7.394531 7.203125 -6.9375 C 7.203125 -5.5 7.726562 -4.78125 8.78125 -4.78125 C 9.757812 -4.78125 10.597656 -5.191406 11.296875 -6.015625 C 12.003906 -6.835938 12.566406 -7.96875 12.984375 -9.40625 L 16.5625 -26.296875 L 24.140625 -26.296875 L 20.34375 -8.40625 C 20.207031 -7.882812 20.140625 -7.328125 20.140625 -6.734375 C 20.140625 -6.023438 20.304688 -5.519531 20.640625 -5.21875 C 20.972656 -4.925781 21.523438 -4.78125 22.296875 -4.78125 C 23.273438 -4.78125 24.125 -5.203125 24.84375 -6.046875 C 25.5625 -6.890625 26.128906 -8.007812 26.546875 -9.40625 L 28.765625 -9.40625 C 27.460938 -5.625 25.851562 -3.054688 23.9375 -1.703125 C 22.03125 -0.359375 20.113281 0.3125 18.1875 0.3125 C 16.6875 0.3125 15.488281 -0.101562 14.59375 -0.9375 C 13.695312 -1.78125 13.160156 -3.023438 12.984375 -4.671875 C 11.796875 -2.742188 10.539062 -1.429688 9.21875 -0.734375 C 7.90625 -0.0351562 6.566406 0.3125 5.203125 0.3125 Z M 5.203125 0.3125 "/></g></g></g><g fill="#b73a06" fill-opacity="1"><g transform="translate(237.029708, 254.316504)"><g><path d="M 4 -28.234375 L 11.5625 -28.234375 L 10.71875 -24.296875 C 12.476562 -25.796875 14.53125 -26.546875 16.875 -26.546875 C 18.84375 -26.546875 20.40625 -25.894531 21.5625 -24.59375 C 22.71875 -23.300781 23.296875 -21.1875 23.296875 -18.25 C 23.296875 -15.476562 22.890625 -12.679688 22.078125 -9.859375 C 21.273438 -7.035156 19.910156 -4.632812 17.984375 -2.65625 C 16.054688 -0.675781 13.515625 0.3125 10.359375 0.3125 C 8.117188 0.3125 6.628906 -0.316406 5.890625 -1.578125 L 3.15625 11.25 L -4.78125 13.140625 Z M 8.734375 -4.265625 C 10.410156 -4.265625 11.800781 -5.050781 12.90625 -6.625 C 14.007812 -8.195312 14.816406 -10.078125 15.328125 -12.265625 C 15.835938 -14.460938 16.09375 -16.507812 16.09375 -18.40625 C 16.09375 -21.3125 15.210938 -22.765625 13.453125 -22.765625 C 12.828125 -22.765625 12.1875 -22.535156 11.53125 -22.078125 C 10.882812 -21.628906 10.316406 -21 9.828125 -20.1875 L 6.734375 -5.46875 C 7.015625 -4.664062 7.679688 -4.265625 8.734375 -4.265625 Z M 8.734375 -4.265625 "/></g></g></g><g fill="#b73a06" fill-opacity="1"><g transform="translate(106.070104, 276.254095)"><g><path d="M 0.90625 -7.59375 L 4.34375 -7.59375 C 5.164062 -7.59375 5.894531 -7.429688 6.53125 -7.109375 C 7.164062 -6.796875 7.65625 -6.351562 8 -5.78125 C 8.351562 -5.21875 8.53125 -4.554688 8.53125 -3.796875 C 8.53125 -3.035156 8.351562 -2.367188 8 -1.796875 C 7.65625 -1.222656 7.164062 -0.78125 6.53125 -0.46875 C 5.894531 -0.15625 5.164062 0 4.34375 0 L 0.90625 0 Z M 4.265625 -1.4375 C 5.023438 -1.4375 5.628906 -1.648438 6.078125 -2.078125 C 6.523438 -2.503906 6.75 -3.078125 6.75 -3.796875 C 6.75 -4.515625 6.523438 -5.082031 6.078125 -5.5 C 5.628906 -5.925781 5.023438 -6.140625 4.265625 -6.140625 L 2.65625 -6.140625 L 2.65625 -1.4375 Z M 4.265625 -1.4375 "/></g></g></g><g fill="#b73a06" fill-opacity="1"><g transform="translate(116.722787, 276.254095)"><g><path d="M 6.5 -2.890625 C 6.5 -2.867188 6.488281 -2.71875 6.46875 -2.4375 L 2.046875 -2.4375 C 2.128906 -2.070312 2.316406 -1.785156 2.609375 -1.578125 C 2.910156 -1.367188 3.28125 -1.265625 3.71875 -1.265625 C 4.019531 -1.265625 4.285156 -1.3125 4.515625 -1.40625 C 4.753906 -1.5 4.976562 -1.640625 5.1875 -1.828125 L 6.078125 -0.859375 C 5.535156 -0.222656 4.734375 0.09375 3.671875 0.09375 C 3.015625 0.09375 2.429688 -0.0351562 1.921875 -0.296875 C 1.421875 -0.554688 1.03125 -0.910156 0.75 -1.359375 C 0.476562 -1.816406 0.34375 -2.335938 0.34375 -2.921875 C 0.34375 -3.492188 0.476562 -4.007812 0.75 -4.46875 C 1.019531 -4.925781 1.390625 -5.28125 1.859375 -5.53125 C 2.335938 -5.789062 2.867188 -5.921875 3.453125 -5.921875 C 4.023438 -5.921875 4.539062 -5.796875 5 -5.546875 C 5.46875 -5.304688 5.832031 -4.957031 6.09375 -4.5 C 6.363281 -4.039062 6.5 -3.503906 6.5 -2.890625 Z M 3.46875 -4.640625 C 3.082031 -4.640625 2.757812 -4.53125 2.5 -4.3125 C 2.238281 -4.09375 2.082031 -3.796875 2.03125 -3.421875 L 4.90625 -3.421875 C 4.84375 -3.796875 4.679688 -4.09375 4.421875 -4.3125 C 4.160156 -4.53125 3.84375 -4.640625 3.46875 -4.640625 Z M 3.46875 -4.640625 "/></g></g></g><g fill="#b73a06" fill-opacity="1"><g transform="translate(125.260256, 276.254095)"><g><path d="M 2.75 0.09375 C 2.257812 0.09375 1.78125 0.0351562 1.3125 -0.078125 C 0.851562 -0.203125 0.488281 -0.359375 0.21875 -0.546875 L 0.78125 -1.75 C 1.039062 -1.582031 1.351562 -1.445312 1.71875 -1.34375 C 2.09375 -1.238281 2.457031 -1.1875 2.8125 -1.1875 C 3.519531 -1.1875 3.875 -1.363281 3.875 -1.71875 C 3.875 -1.882812 3.773438 -2.003906 3.578125 -2.078125 C 3.390625 -2.148438 3.09375 -2.210938 2.6875 -2.265625 C 2.207031 -2.335938 1.8125 -2.421875 1.5 -2.515625 C 1.195312 -2.609375 0.929688 -2.773438 0.703125 -3.015625 C 0.472656 -3.253906 0.359375 -3.59375 0.359375 -4.03125 C 0.359375 -4.40625 0.460938 -4.734375 0.671875 -5.015625 C 0.890625 -5.296875 1.203125 -5.515625 1.609375 -5.671875 C 2.015625 -5.835938 2.5 -5.921875 3.0625 -5.921875 C 3.46875 -5.921875 3.875 -5.875 4.28125 -5.78125 C 4.695312 -5.695312 5.035156 -5.570312 5.296875 -5.40625 L 4.734375 -4.203125 C 4.222656 -4.492188 3.664062 -4.640625 3.0625 -4.640625 C 2.695312 -4.640625 2.421875 -4.585938 2.234375 -4.484375 C 2.054688 -4.390625 1.96875 -4.257812 1.96875 -4.09375 C 1.96875 -3.914062 2.066406 -3.789062 2.265625 -3.71875 C 2.460938 -3.644531 2.773438 -3.578125 3.203125 -3.515625 C 3.679688 -3.429688 4.070312 -3.34375 4.375 -3.25 C 4.675781 -3.164062 4.9375 -3.003906 5.15625 -2.765625 C 5.382812 -2.523438 5.5 -2.191406 5.5 -1.765625 C 5.5 -1.398438 5.390625 -1.078125 5.171875 -0.796875 C 4.953125 -0.515625 4.632812 -0.296875 4.21875 -0.140625 C 3.800781 0.015625 3.3125 0.09375 2.75 0.09375 Z M 2.75 0.09375 "/></g></g></g><g fill="#b73a06" fill-opacity="1"><g transform="translate(132.712997, 276.254095)"><g/></g></g><g fill="#b73a06" fill-opacity="1"><g transform="translate(137.475617, 276.254095)"><g><path d="M 2.390625 -5.0625 C 2.597656 -5.34375 2.875 -5.554688 3.21875 -5.703125 C 3.5625 -5.847656 3.957031 -5.921875 4.40625 -5.921875 L 4.40625 -4.359375 C 4.21875 -4.367188 4.085938 -4.375 4.015625 -4.375 C 3.535156 -4.375 3.15625 -4.238281 2.875 -3.96875 C 2.601562 -3.695312 2.46875 -3.289062 2.46875 -2.75 L 2.46875 0 L 0.78125 0 L 0.78125 -5.828125 L 2.390625 -5.828125 Z M 2.390625 -5.0625 "/></g></g></g><g fill="#b73a06" fill-opacity="1"><g transform="translate(143.843629, 276.254095)"><g><path d="M 6.5 -2.890625 C 6.5 -2.867188 6.488281 -2.71875 6.46875 -2.4375 L 2.046875 -2.4375 C 2.128906 -2.070312 2.316406 -1.785156 2.609375 -1.578125 C 2.910156 -1.367188 3.28125 -1.265625 3.71875 -1.265625 C 4.019531 -1.265625 4.285156 -1.3125 4.515625 -1.40625 C 4.753906 -1.5 4.976562 -1.640625 5.1875 -1.828125 L 6.078125 -0.859375 C 5.535156 -0.222656 4.734375 0.09375 3.671875 0.09375 C 3.015625 0.09375 2.429688 -0.0351562 1.921875 -0.296875 C 1.421875 -0.554688 1.03125 -0.910156 0.75 -1.359375 C 0.476562 -1.816406 0.34375 -2.335938 0.34375 -2.921875 C 0.34375 -3.492188 0.476562 -4.007812 0.75 -4.46875 C 1.019531 -4.925781 1.390625 -5.28125 1.859375 -5.53125 C 2.335938 -5.789062 2.867188 -5.921875 3.453125 -5.921875 C 4.023438 -5.921875 4.539062 -5.796875 5 -5.546875 C 5.46875 -5.304688 5.832031 -4.957031 6.09375 -4.5 C 6.363281 -4.039062 6.5 -3.503906 6.5 -2.890625 Z M 3.46875 -4.640625 C 3.082031 -4.640625 2.757812 -4.53125 2.5 -4.3125 C 2.238281 -4.09375 2.082031 -3.796875 2.03125 -3.421875 L 4.90625 -3.421875 C 4.84375 -3.796875 4.679688 -4.09375 4.421875 -4.3125 C 4.160156 -4.53125 3.84375 -4.640625 3.46875 -4.640625 Z M 3.46875 -4.640625 "/></g></g></g><g fill="#b73a06" fill-opacity="1"><g transform="translate(152.381099, 276.254095)"><g><path d="M 3.59375 0.09375 C 2.976562 0.09375 2.421875 -0.0351562 1.921875 -0.296875 C 1.429688 -0.554688 1.046875 -0.910156 0.765625 -1.359375 C 0.484375 -1.816406 0.34375 -2.335938 0.34375 -2.921875 C 0.34375 -3.492188 0.484375 -4.007812 0.765625 -4.46875 C 1.046875 -4.925781 1.429688 -5.28125 1.921875 -5.53125 C 2.421875 -5.789062 2.976562 -5.921875 3.59375 -5.921875 C 4.207031 -5.921875 4.742188 -5.789062 5.203125 -5.53125 C 5.671875 -5.28125 6.007812 -4.914062 6.21875 -4.4375 L 4.90625 -3.734375 C 4.601562 -4.265625 4.164062 -4.53125 3.59375 -4.53125 C 3.144531 -4.53125 2.773438 -4.382812 2.484375 -4.09375 C 2.203125 -3.8125 2.0625 -3.421875 2.0625 -2.921875 C 2.0625 -2.421875 2.203125 -2.023438 2.484375 -1.734375 C 2.773438 -1.441406 3.144531 -1.296875 3.59375 -1.296875 C 4.164062 -1.296875 4.601562 -1.566406 4.90625 -2.109375 L 6.21875 -1.390625 C 6.007812 -0.921875 5.671875 -0.554688 5.203125 -0.296875 C 4.742188 -0.0351562 4.207031 0.09375 3.59375 0.09375 Z M 3.59375 0.09375 "/></g></g></g><g fill="#b73a06" fill-opacity="1"><g transform="translate(160.484674, 276.254095)"><g><path d="M 6.5 -2.890625 C 6.5 -2.867188 6.488281 -2.71875 6.46875 -2.4375 L 2.046875 -2.4375 C 2.128906 -2.070312 2.316406 -1.785156 2.609375 -1.578125 C 2.910156 -1.367188 3.28125 -1.265625 3.71875 -1.265625 C 4.019531 -1.265625 4.285156 -1.3125 4.515625 -1.40625 C 4.753906 -1.5 4.976562 -1.640625 5.1875 -1.828125 L 6.078125 -0.859375 C 5.535156 -0.222656 4.734375 0.09375 3.671875 0.09375 C 3.015625 0.09375 2.429688 -0.0351562 1.921875 -0.296875 C 1.421875 -0.554688 1.03125 -0.910156 0.75 -1.359375 C 0.476562 -1.816406 0.34375 -2.335938 0.34375 -2.921875 C 0.34375 -3.492188 0.476562 -4.007812 0.75 -4.46875 C 1.019531 -4.925781 1.390625 -5.28125 1.859375 -5.53125 C 2.335938 -5.789062 2.867188 -5.921875 3.453125 -5.921875 C 4.023438 -5.921875 4.539062 -5.796875 5 -5.546875 C 5.46875 -5.304688 5.832031 -4.957031 6.09375 -4.5 C 6.363281 -4.039062 6.5 -3.503906 6.5 -2.890625 Z M 3.46875 -4.640625 C 3.082031 -4.640625 2.757812 -4.53125 2.5 -4.3125 C 2.238281 -4.09375 2.082031 -3.796875 2.03125 -3.421875 L 4.90625 -3.421875 C 4.84375 -3.796875 4.679688 -4.09375 4.421875 -4.3125 C 4.160156 -4.53125 3.84375 -4.640625 3.46875 -4.640625 Z M 3.46875 -4.640625 "/></g></g></g><g fill="#b73a06" fill-opacity="1"><g transform="translate(169.022144, 276.254095)"><g><path d="M 4.546875 -0.28125 C 4.378906 -0.15625 4.171875 -0.0625 3.921875 0 C 3.679688 0.0625 3.429688 0.09375 3.171875 0.09375 C 2.472656 0.09375 1.929688 -0.0820312 1.546875 -0.4375 C 1.171875 -0.789062 0.984375 -1.3125 0.984375 -2 L 0.984375 -4.40625 L 0.09375 -4.40625 L 0.09375 -5.703125 L 0.984375 -5.703125 L 0.984375 -7.125 L 2.671875 -7.125 L 2.671875 -5.703125 L 4.125 -5.703125 L 4.125 -4.40625 L 2.671875 -4.40625 L 2.671875 -2.03125 C 2.671875 -1.78125 2.734375 -1.585938 2.859375 -1.453125 C 2.992188 -1.328125 3.175781 -1.265625 3.40625 -1.265625 C 3.675781 -1.265625 3.90625 -1.332031 4.09375 -1.46875 Z M 4.546875 -0.28125 "/></g></g></g><g fill="#b73a06" fill-opacity="1"><g transform="translate(175.433546, 276.254095)"><g><path d="M 4.546875 -0.28125 C 4.378906 -0.15625 4.171875 -0.0625 3.921875 0 C 3.679688 0.0625 3.429688 0.09375 3.171875 0.09375 C 2.472656 0.09375 1.929688 -0.0820312 1.546875 -0.4375 C 1.171875 -0.789062 0.984375 -1.3125 0.984375 -2 L 0.984375 -4.40625 L 0.09375 -4.40625 L 0.09375 -5.703125 L 0.984375 -5.703125 L 0.984375 -7.125 L 2.671875 -7.125 L 2.671875 -5.703125 L 4.125 -5.703125 L 4.125 -4.40625 L 2.671875 -4.40625 L 2.671875 -2.03125 C 2.671875 -1.78125 2.734375 -1.585938 2.859375 -1.453125 C 2.992188 -1.328125 3.175781 -1.265625 3.40625 -1.265625 C 3.675781 -1.265625 3.90625 -1.332031 4.09375 -1.46875 Z M 4.546875 -0.28125 "/></g></g></g><g fill="#b73a06" fill-opacity="1"><g transform="translate(181.844949, 276.254095)"><g><path d="M 6.5 -2.890625 C 6.5 -2.867188 6.488281 -2.71875 6.46875 -2.4375 L 2.046875 -2.4375 C 2.128906 -2.070312 2.316406 -1.785156 2.609375 -1.578125 C 2.910156 -1.367188 3.28125 -1.265625 3.71875 -1.265625 C 4.019531 -1.265625 4.285156 -1.3125 4.515625 -1.40625 C 4.753906 -1.5 4.976562 -1.640625 5.1875 -1.828125 L 6.078125 -0.859375 C 5.535156 -0.222656 4.734375 0.09375 3.671875 0.09375 C 3.015625 0.09375 2.429688 -0.0351562 1.921875 -0.296875 C 1.421875 -0.554688 1.03125 -0.910156 0.75 -1.359375 C 0.476562 -1.816406 0.34375 -2.335938 0.34375 -2.921875 C 0.34375 -3.492188 0.476562 -4.007812 0.75 -4.46875 C 1.019531 -4.925781 1.390625 -5.28125 1.859375 -5.53125 C 2.335938 -5.789062 2.867188 -5.921875 3.453125 -5.921875 C 4.023438 -5.921875 4.539062 -5.796875 5 -5.546875 C 5.46875 -5.304688 5.832031 -4.957031 6.09375 -4.5 C 6.363281 -4.039062 6.5 -3.503906 6.5 -2.890625 Z M 3.46875 -4.640625 C 3.082031 -4.640625 2.757812 -4.53125 2.5 -4.3125 C 2.238281 -4.09375 2.082031 -3.796875 2.03125 -3.421875 L 4.90625 -3.421875 C 4.84375 -3.796875 4.679688 -4.09375 4.421875 -4.3125 C 4.160156 -4.53125 3.84375 -4.640625 3.46875 -4.640625 Z M 3.46875 -4.640625 "/></g></g></g><g fill="#b73a06" fill-opacity="1"><g transform="translate(190.382419, 276.254095)"><g><path d="M 2.75 0.09375 C 2.257812 0.09375 1.78125 0.0351562 1.3125 -0.078125 C 0.851562 -0.203125 0.488281 -0.359375 0.21875 -0.546875 L 0.78125 -1.75 C 1.039062 -1.582031 1.351562 -1.445312 1.71875 -1.34375 C 2.09375 -1.238281 2.457031 -1.1875 2.8125 -1.1875 C 3.519531 -1.1875 3.875 -1.363281 3.875 -1.71875 C 3.875 -1.882812 3.773438 -2.003906 3.578125 -2.078125 C 3.390625 -2.148438 3.09375 -2.210938 2.6875 -2.265625 C 2.207031 -2.335938 1.8125 -2.421875 1.5 -2.515625 C 1.195312 -2.609375 0.929688 -2.773438 0.703125 -3.015625 C 0.472656 -3.253906 0.359375 -3.59375 0.359375 -4.03125 C 0.359375 -4.40625 0.460938 -4.734375 0.671875 -5.015625 C 0.890625 -5.296875 1.203125 -5.515625 1.609375 -5.671875 C 2.015625 -5.835938 2.5 -5.921875 3.0625 -5.921875 C 3.46875 -5.921875 3.875 -5.875 4.28125 -5.78125 C 4.695312 -5.695312 5.035156 -5.570312 5.296875 -5.40625 L 4.734375 -4.203125 C 4.222656 -4.492188 3.664062 -4.640625 3.0625 -4.640625 C 2.695312 -4.640625 2.421875 -4.585938 2.234375 -4.484375 C 2.054688 -4.390625 1.96875 -4.257812 1.96875 -4.09375 C 1.96875 -3.914062 2.066406 -3.789062 2.265625 -3.71875 C 2.460938 -3.644531 2.773438 -3.578125 3.203125 -3.515625 C 3.679688 -3.429688 4.070312 -3.34375 4.375 -3.25 C 4.675781 -3.164062 4.9375 -3.003906 5.15625 -2.765625 C 5.382812 -2.523438 5.5 -2.191406 5.5 -1.765625 C 5.5 -1.398438 5.390625 -1.078125 5.171875 -0.796875 C 4.953125 -0.515625 4.632812 -0.296875 4.21875 -0.140625 C 3.800781 0.015625 3.3125 0.09375 2.75 0.09375 Z M 2.75 0.09375 "/></g></g></g><g fill="#b73a06" fill-opacity="1"><g transform="translate(197.835159, 276.254095)"><g/></g></g><g fill="#b73a06" fill-opacity="1"><g transform="translate(202.59778, 276.254095)"><g><path d="M 2.640625 -5.703125 L 4.125 -5.703125 L 4.125 -4.40625 L 2.671875 -4.40625 L 2.671875 0 L 0.984375 0 L 0.984375 -4.40625 L 0.09375 -4.40625 L 0.09375 -5.703125 L 0.984375 -5.703125 L 0.984375 -5.96875 C 0.984375 -6.632812 1.179688 -7.160156 1.578125 -7.546875 C 1.972656 -7.941406 2.53125 -8.140625 3.25 -8.140625 C 3.5 -8.140625 3.738281 -8.109375 3.96875 -8.046875 C 4.195312 -7.992188 4.382812 -7.914062 4.53125 -7.8125 L 4.09375 -6.59375 C 3.894531 -6.726562 3.664062 -6.796875 3.40625 -6.796875 C 2.894531 -6.796875 2.640625 -6.515625 2.640625 -5.953125 Z M 2.640625 -5.703125 "/></g></g></g><g fill="#b73a06" fill-opacity="1"><g transform="translate(208.488507, 276.254095)"><g><path d="M 3.140625 -5.921875 C 4.035156 -5.921875 4.722656 -5.703125 5.203125 -5.265625 C 5.691406 -4.835938 5.9375 -4.191406 5.9375 -3.328125 L 5.9375 0 L 4.359375 0 L 4.359375 -0.71875 C 4.035156 -0.175781 3.441406 0.09375 2.578125 0.09375 C 2.128906 0.09375 1.738281 0.015625 1.40625 -0.140625 C 1.082031 -0.296875 0.832031 -0.503906 0.65625 -0.765625 C 0.488281 -1.035156 0.40625 -1.34375 0.40625 -1.6875 C 0.40625 -2.226562 0.609375 -2.648438 1.015625 -2.953125 C 1.421875 -3.265625 2.050781 -3.421875 2.90625 -3.421875 L 4.25 -3.421875 C 4.25 -3.796875 4.132812 -4.082031 3.90625 -4.28125 C 3.6875 -4.476562 3.351562 -4.578125 2.90625 -4.578125 C 2.59375 -4.578125 2.285156 -4.523438 1.984375 -4.421875 C 1.691406 -4.328125 1.4375 -4.195312 1.21875 -4.03125 L 0.625 -5.21875 C 0.9375 -5.4375 1.3125 -5.609375 1.75 -5.734375 C 2.195312 -5.859375 2.660156 -5.921875 3.140625 -5.921875 Z M 3 -1.046875 C 3.289062 -1.046875 3.546875 -1.113281 3.765625 -1.25 C 3.992188 -1.382812 4.15625 -1.582031 4.25 -1.84375 L 4.25 -2.4375 L 3.09375 -2.4375 C 2.394531 -2.4375 2.046875 -2.207031 2.046875 -1.75 C 2.046875 -1.539062 2.128906 -1.367188 2.296875 -1.234375 C 2.472656 -1.109375 2.707031 -1.046875 3 -1.046875 Z M 3 -1.046875 "/></g></g></g><g fill="#b73a06" fill-opacity="1"><g transform="translate(216.874115, 276.254095)"><g><path d="M 3.59375 0.09375 C 2.976562 0.09375 2.421875 -0.0351562 1.921875 -0.296875 C 1.429688 -0.554688 1.046875 -0.910156 0.765625 -1.359375 C 0.484375 -1.816406 0.34375 -2.335938 0.34375 -2.921875 C 0.34375 -3.492188 0.484375 -4.007812 0.765625 -4.46875 C 1.046875 -4.925781 1.429688 -5.28125 1.921875 -5.53125 C 2.421875 -5.789062 2.976562 -5.921875 3.59375 -5.921875 C 4.207031 -5.921875 4.742188 -5.789062 5.203125 -5.53125 C 5.671875 -5.28125 6.007812 -4.914062 6.21875 -4.4375 L 4.90625 -3.734375 C 4.601562 -4.265625 4.164062 -4.53125 3.59375 -4.53125 C 3.144531 -4.53125 2.773438 -4.382812 2.484375 -4.09375 C 2.203125 -3.8125 2.0625 -3.421875 2.0625 -2.921875 C 2.0625 -2.421875 2.203125 -2.023438 2.484375 -1.734375 C 2.773438 -1.441406 3.144531 -1.296875 3.59375 -1.296875 C 4.164062 -1.296875 4.601562 -1.566406 4.90625 -2.109375 L 6.21875 -1.390625 C 6.007812 -0.921875 5.671875 -0.554688 5.203125 -0.296875 C 4.742188 -0.0351562 4.207031 0.09375 3.59375 0.09375 Z M 3.59375 0.09375 "/></g></g></g><g fill="#b73a06" fill-opacity="1"><g transform="translate(224.977685, 276.254095)"><g><path d="M 0.78125 -5.828125 L 2.46875 -5.828125 L 2.46875 0 L 0.78125 0 Z M 1.625 -6.640625 C 1.3125 -6.640625 1.054688 -6.726562 0.859375 -6.90625 C 0.660156 -7.09375 0.5625 -7.320312 0.5625 -7.59375 C 0.5625 -7.851562 0.660156 -8.070312 0.859375 -8.25 C 1.054688 -8.4375 1.3125 -8.53125 1.625 -8.53125 C 1.9375 -8.53125 2.1875 -8.441406 2.375 -8.265625 C 2.570312 -8.097656 2.671875 -7.882812 2.671875 -7.625 C 2.671875 -7.34375 2.570312 -7.109375 2.375 -6.921875 C 2.1875 -6.734375 1.9375 -6.640625 1.625 -6.640625 Z M 1.625 -6.640625 "/></g></g></g><g fill="#b73a06" fill-opacity="1"><g transform="translate(229.935557, 276.254095)"><g><path d="M 0.78125 -8.046875 L 2.46875 -8.046875 L 2.46875 0 L 0.78125 0 Z M 0.78125 -8.046875 "/></g></g></g><g fill="#b73a06" fill-opacity="1"><g transform="translate(234.893428, 276.254095)"><g><path d="M 6.5 -2.890625 C 6.5 -2.867188 6.488281 -2.71875 6.46875 -2.4375 L 2.046875 -2.4375 C 2.128906 -2.070312 2.316406 -1.785156 2.609375 -1.578125 C 2.910156 -1.367188 3.28125 -1.265625 3.71875 -1.265625 C 4.019531 -1.265625 4.285156 -1.3125 4.515625 -1.40625 C 4.753906 -1.5 4.976562 -1.640625 5.1875 -1.828125 L 6.078125 -0.859375 C 5.535156 -0.222656 4.734375 0.09375 3.671875 0.09375 C 3.015625 0.09375 2.429688 -0.0351562 1.921875 -0.296875 C 1.421875 -0.554688 1.03125 -0.910156 0.75 -1.359375 C 0.476562 -1.816406 0.34375 -2.335938 0.34375 -2.921875 C 0.34375 -3.492188 0.476562 -4.007812 0.75 -4.46875 C 1.019531 -4.925781 1.390625 -5.28125 1.859375 -5.53125 C 2.335938 -5.789062 2.867188 -5.921875 3.453125 -5.921875 C 4.023438 -5.921875 4.539062 -5.796875 5 -5.546875 C 5.46875 -5.304688 5.832031 -4.957031 6.09375 -4.5 C 6.363281 -4.039062 6.5 -3.503906 6.5 -2.890625 Z M 3.46875 -4.640625 C 3.082031 -4.640625 2.757812 -4.53125 2.5 -4.3125 C 2.238281 -4.09375 2.082031 -3.796875 2.03125 -3.421875 L 4.90625 -3.421875 C 4.84375 -3.796875 4.679688 -4.09375 4.421875 -4.3125 C 4.160156 -4.53125 3.84375 -4.640625 3.46875 -4.640625 Z M 3.46875 -4.640625 "/></g></g></g><g fill="#b73a06" fill-opacity="1"><g transform="translate(243.430904, 276.254095)"><g><path d="M 2.75 0.09375 C 2.257812 0.09375 1.78125 0.0351562 1.3125 -0.078125 C 0.851562 -0.203125 0.488281 -0.359375 0.21875 -0.546875 L 0.78125 -1.75 C 1.039062 -1.582031 1.351562 -1.445312 1.71875 -1.34375 C 2.09375 -1.238281 2.457031 -1.1875 2.8125 -1.1875 C 3.519531 -1.1875 3.875 -1.363281 3.875 -1.71875 C 3.875 -1.882812 3.773438 -2.003906 3.578125 -2.078125 C 3.390625 -2.148438 3.09375 -2.210938 2.6875 -2.265625 C 2.207031 -2.335938 1.8125 -2.421875 1.5 -2.515625 C 1.195312 -2.609375 0.929688 -2.773438 0.703125 -3.015625 C 0.472656 -3.253906 0.359375 -3.59375 0.359375 -4.03125 C 0.359375 -4.40625 0.460938 -4.734375 0.671875 -5.015625 C 0.890625 -5.296875 1.203125 -5.515625 1.609375 -5.671875 C 2.015625 -5.835938 2.5 -5.921875 3.0625 -5.921875 C 3.46875 -5.921875 3.875 -5.875 4.28125 -5.78125 C 4.695312 -5.695312 5.035156 -5.570312 5.296875 -5.40625 L 4.734375 -4.203125 C 4.222656 -4.492188 3.664062 -4.640625 3.0625 -4.640625 C 2.695312 -4.640625 2.421875 -4.585938 2.234375 -4.484375 C 2.054688 -4.390625 1.96875 -4.257812 1.96875 -4.09375 C 1.96875 -3.914062 2.066406 -3.789062 2.265625 -3.71875 C 2.460938 -3.644531 2.773438 -3.578125 3.203125 -3.515625 C 3.679688 -3.429688 4.070312 -3.34375 4.375 -3.25 C 4.675781 -3.164062 4.9375 -3.003906 5.15625 -2.765625 C 5.382812 -2.523438 5.5 -2.191406 5.5 -1.765625 C 5.5 -1.398438 5.390625 -1.078125 5.171875 -0.796875 C 4.953125 -0.515625 4.632812 -0.296875 4.21875 -0.140625 C 3.800781 0.015625 3.3125 0.09375 2.75 0.09375 Z M 2.75 0.09375 "/></g></g></g><g fill="#b73a06" fill-opacity="1"><g transform="translate(250.883639, 276.254095)"><g/></g></g><g fill="#b73a06" fill-opacity="1"><g transform="translate(255.646265, 276.254095)"><g><path d="M 6.5 -2.890625 C 6.5 -2.867188 6.488281 -2.71875 6.46875 -2.4375 L 2.046875 -2.4375 C 2.128906 -2.070312 2.316406 -1.785156 2.609375 -1.578125 C 2.910156 -1.367188 3.28125 -1.265625 3.71875 -1.265625 C 4.019531 -1.265625 4.285156 -1.3125 4.515625 -1.40625 C 4.753906 -1.5 4.976562 -1.640625 5.1875 -1.828125 L 6.078125 -0.859375 C 5.535156 -0.222656 4.734375 0.09375 3.671875 0.09375 C 3.015625 0.09375 2.429688 -0.0351562 1.921875 -0.296875 C 1.421875 -0.554688 1.03125 -0.910156 0.75 -1.359375 C 0.476562 -1.816406 0.34375 -2.335938 0.34375 -2.921875 C 0.34375 -3.492188 0.476562 -4.007812 0.75 -4.46875 C 1.019531 -4.925781 1.390625 -5.28125 1.859375 -5.53125 C 2.335938 -5.789062 2.867188 -5.921875 3.453125 -5.921875 C 4.023438 -5.921875 4.539062 -5.796875 5 -5.546875 C 5.46875 -5.304688 5.832031 -4.957031 6.09375 -4.5 C 6.363281 -4.039062 6.5 -3.503906 6.5 -2.890625 Z M 3.46875 -4.640625 C 3.082031 -4.640625 2.757812 -4.53125 2.5 -4.3125 C 2.238281 -4.09375 2.082031 -3.796875 2.03125 -3.421875 L 4.90625 -3.421875 C 4.84375 -3.796875 4.679688 -4.09375 4.421875 -4.3125 C 4.160156 -4.53125 3.84375 -4.640625 3.46875 -4.640625 Z M 3.46875 -4.640625 "/></g></g></g><g fill="#b73a06" fill-opacity="1"><g transform="translate(264.183729, 276.254095)"><g><path d="M 4.546875 -0.28125 C 4.378906 -0.15625 4.171875 -0.0625 3.921875 0 C 3.679688 0.0625 3.429688 0.09375 3.171875 0.09375 C 2.472656 0.09375 1.929688 -0.0820312 1.546875 -0.4375 C 1.171875 -0.789062 0.984375 -1.3125 0.984375 -2 L 0.984375 -4.40625 L 0.09375 -4.40625 L 0.09375 -5.703125 L 0.984375 -5.703125 L 0.984375 -7.125 L 2.671875 -7.125 L 2.671875 -5.703125 L 4.125 -5.703125 L 4.125 -4.40625 L 2.671875 -4.40625 L 2.671875 -2.03125 C 2.671875 -1.78125 2.734375 -1.585938 2.859375 -1.453125 C 2.992188 -1.328125 3.175781 -1.265625 3.40625 -1.265625 C 3.675781 -1.265625 3.90625 -1.332031 4.09375 -1.46875 Z M 4.546875 -0.28125 "/></g></g></g><g fill="#b73a06" fill-opacity="1"><g transform="translate(148.111392, 290.903691)"><g><path d="M 3.140625 -5.921875 C 4.035156 -5.921875 4.722656 -5.703125 5.203125 -5.265625 C 5.691406 -4.835938 5.9375 -4.191406 5.9375 -3.328125 L 5.9375 0 L 4.359375 0 L 4.359375 -0.71875 C 4.035156 -0.175781 3.441406 0.09375 2.578125 0.09375 C 2.128906 0.09375 1.738281 0.015625 1.40625 -0.140625 C 1.082031 -0.296875 0.832031 -0.503906 0.65625 -0.765625 C 0.488281 -1.035156 0.40625 -1.34375 0.40625 -1.6875 C 0.40625 -2.226562 0.609375 -2.648438 1.015625 -2.953125 C 1.421875 -3.265625 2.050781 -3.421875 2.90625 -3.421875 L 4.25 -3.421875 C 4.25 -3.796875 4.132812 -4.082031 3.90625 -4.28125 C 3.6875 -4.476562 3.351562 -4.578125 2.90625 -4.578125 C 2.59375 -4.578125 2.285156 -4.523438 1.984375 -4.421875 C 1.691406 -4.328125 1.4375 -4.195312 1.21875 -4.03125 L 0.625 -5.21875 C 0.9375 -5.4375 1.3125 -5.609375 1.75 -5.734375 C 2.195312 -5.859375 2.660156 -5.921875 3.140625 -5.921875 Z M 3 -1.046875 C 3.289062 -1.046875 3.546875 -1.113281 3.765625 -1.25 C 3.992188 -1.382812 4.15625 -1.582031 4.25 -1.84375 L 4.25 -2.4375 L 3.09375 -2.4375 C 2.394531 -2.4375 2.046875 -2.207031 2.046875 -1.75 C 2.046875 -1.539062 2.128906 -1.367188 2.296875 -1.234375 C 2.472656 -1.109375 2.707031 -1.046875 3 -1.046875 Z M 3 -1.046875 "/></g></g></g><g fill="#b73a06" fill-opacity="1"><g transform="translate(156.496995, 290.903691)"><g><path d="M 4.234375 -5.921875 C 4.773438 -5.921875 5.265625 -5.796875 5.703125 -5.546875 C 6.148438 -5.296875 6.5 -4.941406 6.75 -4.484375 C 7.007812 -4.035156 7.140625 -3.515625 7.140625 -2.921875 C 7.140625 -2.316406 7.007812 -1.785156 6.75 -1.328125 C 6.5 -0.878906 6.148438 -0.53125 5.703125 -0.28125 C 5.265625 -0.03125 4.773438 0.09375 4.234375 0.09375 C 3.429688 0.09375 2.816406 -0.160156 2.390625 -0.671875 L 2.390625 0 L 0.78125 0 L 0.78125 -8.046875 L 2.46875 -8.046875 L 2.46875 -5.21875 C 2.894531 -5.6875 3.484375 -5.921875 4.234375 -5.921875 Z M 3.9375 -1.296875 C 4.375 -1.296875 4.726562 -1.441406 5 -1.734375 C 5.28125 -2.023438 5.421875 -2.421875 5.421875 -2.921875 C 5.421875 -3.410156 5.28125 -3.800781 5 -4.09375 C 4.726562 -4.382812 4.375 -4.53125 3.9375 -4.53125 C 3.5 -4.53125 3.140625 -4.382812 2.859375 -4.09375 C 2.585938 -3.800781 2.453125 -3.410156 2.453125 -2.921875 C 2.453125 -2.421875 2.585938 -2.023438 2.859375 -1.734375 C 3.140625 -1.441406 3.5 -1.296875 3.9375 -1.296875 Z M 3.9375 -1.296875 "/></g></g></g><g fill="#b73a06" fill-opacity="1"><g transform="translate(165.674445, 290.903691)"><g><path d="M 3.5625 0.09375 C 2.945312 0.09375 2.394531 -0.0351562 1.90625 -0.296875 C 1.414062 -0.554688 1.03125 -0.910156 0.75 -1.359375 C 0.476562 -1.816406 0.34375 -2.335938 0.34375 -2.921875 C 0.34375 -3.492188 0.476562 -4.007812 0.75 -4.46875 C 1.03125 -4.925781 1.414062 -5.28125 1.90625 -5.53125 C 2.394531 -5.789062 2.945312 -5.921875 3.5625 -5.921875 C 4.175781 -5.921875 4.722656 -5.789062 5.203125 -5.53125 C 5.691406 -5.28125 6.070312 -4.925781 6.34375 -4.46875 C 6.613281 -4.007812 6.75 -3.492188 6.75 -2.921875 C 6.75 -2.335938 6.613281 -1.816406 6.34375 -1.359375 C 6.070312 -0.910156 5.691406 -0.554688 5.203125 -0.296875 C 4.722656 -0.0351562 4.175781 0.09375 3.5625 0.09375 Z M 3.5625 -1.296875 C 3.988281 -1.296875 4.34375 -1.441406 4.625 -1.734375 C 4.90625 -2.023438 5.046875 -2.421875 5.046875 -2.921875 C 5.046875 -3.410156 4.90625 -3.800781 4.625 -4.09375 C 4.34375 -4.382812 3.988281 -4.53125 3.5625 -4.53125 C 3.125 -4.53125 2.765625 -4.382812 2.484375 -4.09375 C 2.203125 -3.800781 2.0625 -3.410156 2.0625 -2.921875 C 2.0625 -2.421875 2.203125 -2.023438 2.484375 -1.734375 C 2.765625 -1.441406 3.125 -1.296875 3.5625 -1.296875 Z M 3.5625 -1.296875 "/></g></g></g><g fill="#b73a06" fill-opacity="1"><g transform="translate(174.472246, 290.903691)"><g><path d="M 2.390625 -5.0625 C 2.597656 -5.34375 2.875 -5.554688 3.21875 -5.703125 C 3.5625 -5.847656 3.957031 -5.921875 4.40625 -5.921875 L 4.40625 -4.359375 C 4.21875 -4.367188 4.085938 -4.375 4.015625 -4.375 C 3.535156 -4.375 3.15625 -4.238281 2.875 -3.96875 C 2.601562 -3.695312 2.46875 -3.289062 2.46875 -2.75 L 2.46875 0 L 0.78125 0 L 0.78125 -5.828125 L 2.390625 -5.828125 Z M 2.390625 -5.0625 "/></g></g></g><g fill="#b73a06" fill-opacity="1"><g transform="translate(180.840258, 290.903691)"><g><path d="M 6.71875 -8.046875 L 6.71875 0 L 5.109375 0 L 5.109375 -0.671875 C 4.691406 -0.160156 4.082031 0.09375 3.28125 0.09375 C 2.738281 0.09375 2.242188 -0.03125 1.796875 -0.28125 C 1.347656 -0.53125 1 -0.878906 0.75 -1.328125 C 0.5 -1.785156 0.375 -2.316406 0.375 -2.921875 C 0.375 -3.515625 0.5 -4.039062 0.75 -4.5 C 1 -4.957031 1.347656 -5.304688 1.796875 -5.546875 C 2.242188 -5.796875 2.738281 -5.921875 3.28125 -5.921875 C 4.03125 -5.921875 4.613281 -5.6875 5.03125 -5.21875 L 5.03125 -8.046875 Z M 3.578125 -1.296875 C 4.003906 -1.296875 4.359375 -1.441406 4.640625 -1.734375 C 4.921875 -2.023438 5.0625 -2.421875 5.0625 -2.921875 C 5.0625 -3.410156 4.921875 -3.800781 4.640625 -4.09375 C 4.359375 -4.382812 4.003906 -4.53125 3.578125 -4.53125 C 3.140625 -4.53125 2.78125 -4.382812 2.5 -4.09375 C 2.21875 -3.800781 2.078125 -3.410156 2.078125 -2.921875 C 2.078125 -2.421875 2.21875 -2.023438 2.5 -1.734375 C 2.78125 -1.441406 3.140625 -1.296875 3.578125 -1.296875 Z M 3.578125 -1.296875 "/></g></g></g><g fill="#b73a06" fill-opacity="1"><g transform="translate(190.039404, 290.903691)"><g><path d="M 3.140625 -5.921875 C 4.035156 -5.921875 4.722656 -5.703125 5.203125 -5.265625 C 5.691406 -4.835938 5.9375 -4.191406 5.9375 -3.328125 L 5.9375 0 L 4.359375 0 L 4.359375 -0.71875 C 4.035156 -0.175781 3.441406 0.09375 2.578125 0.09375 C 2.128906 0.09375 1.738281 0.015625 1.40625 -0.140625 C 1.082031 -0.296875 0.832031 -0.503906 0.65625 -0.765625 C 0.488281 -1.035156 0.40625 -1.34375 0.40625 -1.6875 C 0.40625 -2.226562 0.609375 -2.648438 1.015625 -2.953125 C 1.421875 -3.265625 2.050781 -3.421875 2.90625 -3.421875 L 4.25 -3.421875 C 4.25 -3.796875 4.132812 -4.082031 3.90625 -4.28125 C 3.6875 -4.476562 3.351562 -4.578125 2.90625 -4.578125 C 2.59375 -4.578125 2.285156 -4.523438 1.984375 -4.421875 C 1.691406 -4.328125 1.4375 -4.195312 1.21875 -4.03125 L 0.625 -5.21875 C 0.9375 -5.4375 1.3125 -5.609375 1.75 -5.734375 C 2.195312 -5.859375 2.660156 -5.921875 3.140625 -5.921875 Z M 3 -1.046875 C 3.289062 -1.046875 3.546875 -1.113281 3.765625 -1.25 C 3.992188 -1.382812 4.15625 -1.582031 4.25 -1.84375 L 4.25 -2.4375 L 3.09375 -2.4375 C 2.394531 -2.4375 2.046875 -2.207031 2.046875 -1.75 C 2.046875 -1.539062 2.128906 -1.367188 2.296875 -1.234375 C 2.472656 -1.109375 2.707031 -1.046875 3 -1.046875 Z M 3 -1.046875 "/></g></g></g><g fill="#b73a06" fill-opacity="1"><g transform="translate(198.425007, 290.903691)"><g><path d="M 4.234375 -5.921875 C 4.773438 -5.921875 5.265625 -5.796875 5.703125 -5.546875 C 6.148438 -5.296875 6.5 -4.941406 6.75 -4.484375 C 7.007812 -4.035156 7.140625 -3.515625 7.140625 -2.921875 C 7.140625 -2.316406 7.007812 -1.785156 6.75 -1.328125 C 6.5 -0.878906 6.148438 -0.53125 5.703125 -0.28125 C 5.265625 -0.03125 4.773438 0.09375 4.234375 0.09375 C 3.429688 0.09375 2.816406 -0.160156 2.390625 -0.671875 L 2.390625 0 L 0.78125 0 L 0.78125 -8.046875 L 2.46875 -8.046875 L 2.46875 -5.21875 C 2.894531 -5.6875 3.484375 -5.921875 4.234375 -5.921875 Z M 3.9375 -1.296875 C 4.375 -1.296875 4.726562 -1.441406 5 -1.734375 C 5.28125 -2.023438 5.421875 -2.421875 5.421875 -2.921875 C 5.421875 -3.410156 5.28125 -3.800781 5 -4.09375 C 4.726562 -4.382812 4.375 -4.53125 3.9375 -4.53125 C 3.5 -4.53125 3.140625 -4.382812 2.859375 -4.09375 C 2.585938 -3.800781 2.453125 -3.410156 2.453125 -2.921875 C 2.453125 -2.421875 2.585938 -2.023438 2.859375 -1.734375 C 3.140625 -1.441406 3.5 -1.296875 3.9375 -1.296875 Z M 3.9375 -1.296875 "/></g></g></g><g fill="#b73a06" fill-opacity="1"><g transform="translate(207.602457, 290.903691)"><g><path d="M 0.78125 -8.046875 L 2.46875 -8.046875 L 2.46875 0 L 0.78125 0 Z M 0.78125 -8.046875 "/></g></g></g><g fill="#b73a06" fill-opacity="1"><g transform="translate(212.560323, 290.903691)"><g><path d="M 6.5 -2.890625 C 6.5 -2.867188 6.488281 -2.71875 6.46875 -2.4375 L 2.046875 -2.4375 C 2.128906 -2.070312 2.316406 -1.785156 2.609375 -1.578125 C 2.910156 -1.367188 3.28125 -1.265625 3.71875 -1.265625 C 4.019531 -1.265625 4.285156 -1.3125 4.515625 -1.40625 C 4.753906 -1.5 4.976562 -1.640625 5.1875 -1.828125 L 6.078125 -0.859375 C 5.535156 -0.222656 4.734375 0.09375 3.671875 0.09375 C 3.015625 0.09375 2.429688 -0.0351562 1.921875 -0.296875 C 1.421875 -0.554688 1.03125 -0.910156 0.75 -1.359375 C 0.476562 -1.816406 0.34375 -2.335938 0.34375 -2.921875 C 0.34375 -3.492188 0.476562 -4.007812 0.75 -4.46875 C 1.019531 -4.925781 1.390625 -5.28125 1.859375 -5.53125 C 2.335938 -5.789062 2.867188 -5.921875 3.453125 -5.921875 C 4.023438 -5.921875 4.539062 -5.796875 5 -5.546875 C 5.46875 -5.304688 5.832031 -4.957031 6.09375 -4.5 C 6.363281 -4.039062 6.5 -3.503906 6.5 -2.890625 Z M 3.46875 -4.640625 C 3.082031 -4.640625 2.757812 -4.53125 2.5 -4.3125 C 2.238281 -4.09375 2.082031 -3.796875 2.03125 -3.421875 L 4.90625 -3.421875 C 4.84375 -3.796875 4.679688 -4.09375 4.421875 -4.3125 C 4.160156 -4.53125 3.84375 -4.640625 3.46875 -4.640625 Z M 3.46875 -4.640625 "/></g></g></g><g fill="#b73a06" fill-opacity="1"><g transform="translate(221.097793, 290.903691)"><g><path d="M 2.75 0.09375 C 2.257812 0.09375 1.78125 0.0351562 1.3125 -0.078125 C 0.851562 -0.203125 0.488281 -0.359375 0.21875 -0.546875 L 0.78125 -1.75 C 1.039062 -1.582031 1.351562 -1.445312 1.71875 -1.34375 C 2.09375 -1.238281 2.457031 -1.1875 2.8125 -1.1875 C 3.519531 -1.1875 3.875 -1.363281 3.875 -1.71875 C 3.875 -1.882812 3.773438 -2.003906 3.578125 -2.078125 C 3.390625 -2.148438 3.09375 -2.210938 2.6875 -2.265625 C 2.207031 -2.335938 1.8125 -2.421875 1.5 -2.515625 C 1.195312 -2.609375 0.929688 -2.773438 0.703125 -3.015625 C 0.472656 -3.253906 0.359375 -3.59375 0.359375 -4.03125 C 0.359375 -4.40625 0.460938 -4.734375 0.671875 -5.015625 C 0.890625 -5.296875 1.203125 -5.515625 1.609375 -5.671875 C 2.015625 -5.835938 2.5 -5.921875 3.0625 -5.921875 C 3.46875 -5.921875 3.875 -5.875 4.28125 -5.78125 C 4.695312 -5.695312 5.035156 -5.570312 5.296875 -5.40625 L 4.734375 -4.203125 C 4.222656 -4.492188 3.664062 -4.640625 3.0625 -4.640625 C 2.695312 -4.640625 2.421875 -4.585938 2.234375 -4.484375 C 2.054688 -4.390625 1.96875 -4.257812 1.96875 -4.09375 C 1.96875 -3.914062 2.066406 -3.789062 2.265625 -3.71875 C 2.460938 -3.644531 2.773438 -3.578125 3.203125 -3.515625 C 3.679688 -3.429688 4.070312 -3.34375 4.375 -3.25 C 4.675781 -3.164062 4.9375 -3.003906 5.15625 -2.765625 C 5.382812 -2.523438 5.5 -2.191406 5.5 -1.765625 C 5.5 -1.398438 5.390625 -1.078125 5.171875 -0.796875 C 4.953125 -0.515625 4.632812 -0.296875 4.21875 -0.140625 C 3.800781 0.015625 3.3125 0.09375 2.75 0.09375 Z M 2.75 0.09375 "/></g></g></g></svg>